<svg xmlns="http://www.w3.org/2000/svg" xmlns:xlink="http://www.w3.org/1999/xlink" viewBox="0 0 256 256" width="64px" height="64px">
  <style type="text/css">
    @keyframes ld-pulse
{
  0% {
    animation-timing-function: cubic-bezier(0.0413,0.3905,0.5086,0.6902);
    transform: scale(1);
  }
  24.3% {
    animation-timing-function: cubic-bezier(0.2248,0.6332,0.5246,1);
    transform: scale(0.8458);
  }
  55% {
    animation-timing-function: cubic-bezier(0.3036,0.3393,0.655,0.6144);
    transform: scale(0.8022);
  }
  70.2% {
    animation-timing-function: cubic-bezier(0.4464,0.2728,0.5562,0.7288);
    transform: scale(0.8294);
  }
  82.3% {
    animation-timing-function: cubic-bezier(0.6826,0.1845,1,0.7358);
    transform: scale(0.869);
  }
  100% {
    transform: scale(1);
  }
}
.ld.ld-pulse {
  animation: ld-pulse 0.5s infinite;
}
    @keyframes ld-move {
      0% { transform: translate(0,0) }
      100% { transform: translate(256px,0) }
    }
  </style>
  <defs><g id="id-0.09452234132402104">
    
<!-- Generator: Adobe Illustrator 21.0.0, SVG Export Plug-In . SVG Version: 6.00 Build 0)  -->


<path fill="#F1F2F3" d="M278.803,256.783c0.316-16.586-7.272-33.302-22.804-43.656l-0.003-0.002l0.014-0.009  c30.441-20.296,30.441-65.027,0-85.323l-0.014-0.009h0c30.445-20.295,30.445-65.032,0-85.327l0,0l0.004-0.002  c15.536-10.357,23.124-27.079,22.803-43.67h-86.807v43.602c-0.022,0.015-0.042,0.031-0.064,0.045l-0.001,0l0,0  c0.022,0.015,0.042,0.031,0.064,0.046v85.143c-0.066,0.045-0.127,0.094-0.194,0.138h0l0.194,0v0.024v129H278.803z"/>
<path fill="#D2D2D3" d="M202.831,256.783c19.012-22.506,15.415-58.159-10.833-75.656l-0.003-0.002l0.014-0.009  c18.572-12.383,25.791-33.857,21.701-53.332c-2.614-12.446-9.833-24.078-21.701-31.991l-0.014-0.009h0  c30.445-20.295,30.445-65.032,0-85.327l0,0l0.004-0.002c4.963-3.308,9.101-7.274,12.446-11.67h-76.45v11.602  c-0.022,0.015-0.042,0.031-0.064,0.045l-0.001,0l0,0c0.022,0.015,0.042,0.031,0.064,0.046v85.143  c-0.066,0.045-0.127,0.094-0.194,0.138h0l0.194,0v0.024v32v129H202.831z"/>
<path fill="#F1F2F3" d="M150.803,256.783c0.316-16.586-7.272-33.302-22.804-43.656l-0.003-0.002l0.014-0.009  c30.441-20.296,30.441-65.027,0-85.323l-0.014-0.009h0c30.445-20.295,30.445-65.032,0-85.327l0,0l0.004-0.002  c15.536-10.357,23.124-27.079,22.803-43.67H63.995v43.602c-0.022,0.015-0.042,0.031-0.064,0.045l-0.001,0l0,0  c0.022,0.015,0.042,0.031,0.064,0.046v85.143c-0.066,0.045-0.127,0.094-0.194,0.138h0l0.194,0v0.024v129H150.803z"/>
<path fill="#D2D2D3" d="M74.831,256.783c19.012-22.506,15.415-58.159-10.833-75.656l-0.003-0.002l0.014-0.009  c18.572-12.383,25.791-33.857,21.701-53.332c-2.614-12.446-9.833-24.078-21.701-31.991l-0.014-0.009h0  c30.445-20.295,30.445-65.032,0-85.327l0,0l0.004-0.002c4.963-3.308,9.101-7.274,12.446-11.67H22.802  c0.321,16.591-7.267,33.312-22.803,43.67l-0.004,0.002l0,0c30.445,20.295,30.445,65.032,0,85.327h0l0.014,0.009  c30.441,20.296,30.441,65.028,0,85.323l-0.014,0.009l0.003,0.002c15.532,10.354,23.121,27.07,22.804,43.656H74.831z"/>


  </g></defs>
  <rect x="-0.199" y="-0.217" transform="matrix(-1.836970e-16 1 -1 -1.836970e-16 255.5848 -0.0181)" fill="#D2D2D3" width="256" height="256"/>
  <g>
    <use xlink:href="#id-0.09452234132402104" x="-256" y="-256"/><use xlink:href="#id-0.09452234132402104" x="0" y="-256"/><use xlink:href="#id-0.09452234132402104" x="256" y="-256"/><use xlink:href="#id-0.09452234132402104" x="-256" y="0"/><use xlink:href="#id-0.09452234132402104" x="0" y="0"/><use xlink:href="#id-0.09452234132402104" x="256" y="0"/><use xlink:href="#id-0.09452234132402104" x="-256" y="256"/><use xlink:href="#id-0.09452234132402104" x="0" y="256"/><use xlink:href="#id-0.09452234132402104" x="256" y="256"/>
    <animateTransform attributeName="transform" type="translate" dur="4s" repeatCount="indefinite" keyTimes="0;1" values="0;256"/>
  </g>
</svg>